<?xml version="1.0" encoding="UTF-8"?>
<svg width="265px" height="60px" viewBox="0 0 265 64" fill="#452483" xmlns="http://www.w3.org/2000/svg">
  <title>Logo</title>
  <g clip-path="url(#clip0_837_5571)">
    <path
      d="M38.0399 54.2627L28.2452 47.9541L18.4505 54.2627L15.3071 52.5255L12.1182 54.3998L28.2452 63.8627L44.3723 54.3541L41.1833 52.4798L38.0399 54.2627ZM28.2452 59.977L21.6851 56.0912L28.2452 51.8855L34.8054 56.0912L28.2452 59.977Z"></path>
    <path
      d="M53.0736 34.88V45.2571L47.5612 48.5485L40.3177 44.4342L36.9465 46.3543L47.5612 52.48L56.4448 47.1771V34.24V32.96L53.0736 34.88Z"></path>
    <path d="M53.0736 26.9256L45.8301 31.1313L49.1557 33.0513L56.4448 28.8456V20.2056L53.0736 22.1256V26.9256Z"></path>
    <path
      d="M16.7193 44.0228L8.88355 48.5485L3.37119 45.2571V34.88L0 32.96V47.1771L8.88355 52.48L20.0905 45.9428L16.7193 44.0228Z"></path>
    <path d="M0 19.9771V28.8456L7.24351 33.0513L10.6147 31.1313L3.37119 26.9256V21.9428L0 19.9771Z"></path>
    <path
      d="M19.1793 42.6972L28.2451 47.9086L37.2653 42.6972V27.4743L56.4447 16.32L28.1996 0L0 16.3657L19.1793 27.52V42.6972ZM28.1996 3.88571L41.0465 11.3371L28.1996 18.7429L15.3981 11.3371L28.1996 3.88571ZM6.74238 16.3657L12.027 13.2571L28.1996 22.6286L44.4177 13.2571L49.7023 16.32L33.8941 25.5543V40.7314L28.2451 44.0229L22.5961 40.7314V25.5543L6.74238 16.3657Z"></path>
    <path
      d="M21.6851 56.0912L28.1997 51.8855V47.9541L18.405 54.2627L15.2616 52.5255L12.1182 54.3541L28.1997 63.8627V59.977L21.6851 56.0912Z"></path>
    <path
      d="M16.7193 44.0228L8.88355 48.5485L3.37119 45.2571V34.88L0 32.96V47.1771L8.88355 52.48L20.0905 45.9428L16.7193 44.0228Z"></path>
    <path d="M0 19.9771V28.8456L7.24351 33.0513L10.6147 31.1313L3.37119 26.9256V21.9428L0 19.9771Z"></path>
    <path
      d="M22.5505 40.7314V25.5543L6.74238 16.3657L12.027 13.2571L28.1996 22.6743V18.7429L15.3981 11.3371L28.1996 3.88571V0L0 16.3657L19.1794 27.4743V42.6972L28.1996 47.9086V44.0229L22.5505 40.7314Z"></path>
    <path
      d="M91.1588 35.1084C88.1521 36.297 85.3275 36.8913 82.6853 36.8913C78.5396 36.8913 75.5784 35.7027 73.8017 33.2798C72.025 30.9027 71.1594 28.0227 71.1594 24.7313V20.7998C71.1594 17.5084 72.0706 14.6284 73.8017 12.2513C75.5329 9.87412 78.5852 8.68555 82.8675 8.68555C85.4642 8.68555 88.2432 9.1884 91.2499 10.1941L90.4754 14.3998C87.6054 13.257 85.0998 12.6627 82.913 12.6627C80.3163 12.6627 78.4485 13.4398 77.4007 14.9484C76.3529 16.5027 75.8062 18.4227 75.8062 20.7998V24.7313C75.8062 27.1084 76.3073 29.0284 77.4007 30.5827C78.4485 32.137 80.2252 32.8684 82.6853 32.8684C85.4186 32.8684 88.4709 31.9084 91.8877 29.9884L91.1588 35.1084Z"></path>
    <path
      d="M111.386 25.097V28.4798C111.386 33.5998 107.924 36.8913 102.867 36.8913C97.8558 36.8913 94.3479 33.5998 94.3479 28.4798V25.097C94.3479 22.6284 95.1224 20.617 96.6713 19.0627C98.2202 17.5084 100.27 16.6855 102.867 16.6855C107.969 16.6855 111.386 19.977 111.386 25.097ZM105.646 31.7713C106.42 31.0398 106.785 29.9427 106.785 28.4798V25.097C106.785 23.6341 106.42 22.537 105.646 21.8055C104.871 21.0741 103.96 20.7084 102.913 20.7084C101.865 20.7084 100.954 21.0741 100.179 21.8055C99.4047 22.537 99.0402 23.6341 99.0402 25.097V28.4798C99.0402 29.9427 99.4502 31.0398 100.179 31.7713C100.954 32.5027 101.865 32.8684 102.913 32.8684C103.96 32.8684 104.871 32.5027 105.646 31.7713Z"></path>
    <path
      d="M130.429 23.4055V36.297H125.782V23.4055C125.782 21.577 125.007 20.6627 123.185 20.6627C121.727 20.6627 120.679 20.7998 119.95 21.0284V36.297H115.304V18.0113C118.584 17.1427 121.181 16.6855 123.139 16.6855C125.098 16.6855 126.556 17.0055 127.467 17.6913C129.153 17.0513 131.021 16.6855 133.071 16.6855C135.485 16.6855 137.308 17.3255 138.538 18.5598C139.722 19.8398 140.36 21.4398 140.36 23.4055V36.297H135.759V23.4055C135.759 21.577 134.984 20.6627 133.162 20.6627C131.75 20.6627 130.747 20.7541 130.155 20.937C130.337 21.577 130.429 22.3541 130.429 23.4055Z"></path>
    <path
      d="M159.904 23.4055V36.297H155.257V23.4055C155.257 21.577 154.483 20.6627 152.661 20.6627C151.203 20.6627 150.155 20.7998 149.426 21.0284V36.297H144.779V18.0113C148.059 17.1427 150.656 16.6855 152.615 16.6855C154.574 16.6855 156.032 17.0055 156.943 17.6913C158.629 17.0513 160.496 16.6855 162.546 16.6855C164.961 16.6855 166.783 17.3255 168.013 18.5598C169.198 19.8398 169.835 21.4398 169.835 23.4055V36.297H165.189V23.4055C165.189 21.577 164.414 20.6627 162.592 20.6627C161.18 20.6627 160.177 20.7541 159.585 20.937C159.813 21.577 159.904 22.3541 159.904 23.4055Z"></path>
    <path
      d="M185.324 17.2344H189.971V35.5658C186.327 36.4344 183.502 36.8458 181.543 36.8458C179.129 36.8458 177.306 36.2058 176.076 34.9258C174.846 33.6458 174.254 32.0458 174.254 30.1258V17.2344H178.901V30.1715C178.901 32.0001 179.675 32.8687 181.543 32.8687C183.001 32.8687 184.277 32.7315 185.324 32.4572V17.2344Z"></path>
    <path
      d="M198.946 36.297H194.299V17.9655C197.943 17.097 200.768 16.6855 202.727 16.6855C205.141 16.6855 206.964 17.3255 208.194 18.5598C209.378 19.8398 210.016 21.4398 210.016 23.4055V36.297H205.369V23.4055C205.369 21.577 204.595 20.6627 202.772 20.6627C201.315 20.6627 200.039 20.7998 198.991 21.0741V36.297H198.946Z"></path>
    <path
      d="M218.672 28.3887V28.4344C218.672 31.3601 220.221 32.823 223.137 32.823C224.868 32.823 227.146 32.2287 229.97 30.9944L229.515 35.4744C227.146 36.3887 225.005 36.8458 223.137 36.8458C220.13 36.8458 217.898 36.0687 216.349 34.4687C214.8 32.9144 214.025 30.903 214.025 28.4344V25.0516C214.025 22.583 214.8 20.5716 216.349 19.0173C217.898 17.463 219.948 16.6401 222.544 16.6401C225.141 16.6401 227.237 17.4173 228.786 19.0173C230.335 20.5716 231.064 22.5373 231.064 24.8687V28.3887H218.672ZM226.417 24.5944C226.417 22.3544 224.731 20.7087 222.544 20.7087C220.358 20.7087 218.672 22.4001 218.672 24.5944H226.417Z"></path>
    <path
      d="M239.856 36.297H235.209V18.0113C238.353 17.1427 241.496 16.6855 244.776 16.6855L244.229 20.7084C241.906 20.7084 240.448 20.8455 239.856 21.0284V36.297Z"></path>
    <path
      d="M251.518 28.3887V28.4344C251.518 31.3601 253.067 32.823 255.983 32.823C257.714 32.823 259.992 32.2287 262.816 30.9944L262.361 35.4744C259.992 36.3887 257.851 36.8458 255.983 36.8458C252.976 36.8458 250.744 36.0687 249.195 34.4687C247.646 32.9144 246.872 30.903 246.872 28.4344V25.0516C246.872 22.583 247.646 20.5716 249.195 19.0173C250.744 17.463 252.794 16.6401 255.391 16.6401C257.987 16.6401 260.083 17.4173 261.632 19.0173C263.181 20.5716 263.91 22.5373 263.91 24.8687V28.3887H251.518ZM259.263 24.5944C259.263 22.3544 257.577 20.7087 255.391 20.7087C253.204 20.7087 251.518 22.4001 251.518 24.5944H259.263Z"></path>
    <path
      d="M74.5764 56.32L77.6287 48H78.6765L81.7288 56.32H80.6355L79.8154 53.9429H76.4442L75.6242 56.32H74.5764ZM79.4965 53.0743L78.1754 49.3257H78.1298L76.8087 53.0743H79.4965Z"></path>
    <path
      d="M86.6488 48.8227C85.191 48.8227 84.0065 50.0112 84.0065 52.1598C84.0065 54.3084 85.191 55.497 86.7399 55.497C88.1521 55.497 89.1088 54.537 89.1544 53.0741H86.9677V52.1598H90.1111V53.0741C90.1111 55.1312 88.6988 56.457 86.7399 56.457C84.5532 56.457 83.0498 54.8112 83.0498 52.2055C83.0498 49.5998 84.5532 47.9541 86.6943 47.9541C88.4255 47.9541 89.7922 49.0512 90.1111 50.6512H89.0633C88.6533 49.5084 87.8332 48.8227 86.6488 48.8227Z"></path>
    <path d="M93.5735 56.32H92.5713V48H93.5735V56.32Z"></path>
    <path d="M96.3066 48H97.3089V55.4057H101.181V56.32H96.3066V48Z"></path>
    <path
      d="M103.459 48H108.47V48.9143H104.461V51.7029H108.197V52.6171H104.461V55.4514H108.516V56.3657H103.459V48Z"></path>
    <path
      d="M120.498 55.6341L121.591 57.097H120.498L119.769 56.137C119.313 56.3198 118.812 56.457 118.265 56.457C116.124 56.457 114.621 54.8112 114.621 52.2055C114.621 49.5998 116.17 47.9541 118.265 47.9541C120.407 47.9541 121.91 49.5998 121.91 52.2055C121.955 53.7141 121.409 54.9027 120.498 55.6341ZM119.04 53.7141L119.905 54.857C120.543 54.3084 120.953 53.3941 120.953 52.1141C120.953 49.9655 119.769 48.777 118.265 48.777C116.762 48.777 115.578 49.9655 115.578 52.1141C115.578 54.2627 116.762 55.4512 118.265 55.4512C118.584 55.4512 118.903 55.4055 119.177 55.3141L117.946 53.7141H119.04Z"></path>
    <path
      d="M130.793 48V53.4857C130.793 55.36 129.335 56.4571 127.559 56.4571C125.828 56.4571 124.324 55.36 124.324 53.4857V48H125.326V53.4857C125.326 54.7657 126.374 55.4971 127.559 55.4971C128.743 55.4971 129.791 54.7657 129.791 53.4857V48H130.793Z"></path>
    <path
      d="M132.843 56.32L135.895 48H136.943L139.995 56.32H138.948L138.128 53.9429H134.756L133.936 56.32H132.843ZM137.763 53.0743L136.442 49.3257H136.396L135.075 53.0743H137.763Z"></path>
    <path d="M141.954 48H142.957V55.4057H146.829V56.32H141.954V48Z"></path>
    <path d="M150.109 56.32H149.107V48H150.109V56.32Z"></path>
    <path d="M152.433 48H158.628V48.9143H156.032V56.32H155.029V48.9143H152.433V48Z"></path>
    <path
      d="M161.362 48L163.64 51.8857H163.731L166.009 48H167.148L164.141 52.8914V56.32H163.139V52.8914L160.132 48H161.362Z"></path>
    <path
      d="M173.161 56.32V48H175.848C178.263 48 179.675 49.5543 179.675 52.16C179.675 54.7657 178.263 56.32 175.712 56.32H173.161ZM175.666 55.4057C177.716 55.4057 178.719 54.1714 178.719 52.1143C178.719 50.1029 177.716 48.8686 175.803 48.8686H174.208V55.4057H175.666Z"></path>
    <path
      d="M182.09 48H187.101V48.9143H183.092V51.7029H186.828V52.6171H183.092V55.4514H187.147V56.3657H182.09V48Z"></path>
    <path
      d="M192.432 54.9943H192.523L194.983 48H196.031L192.978 56.32H191.93L188.878 48H189.926L192.432 54.9943Z"></path>
    <path
      d="M198.08 48H203.092V48.9143H199.083V51.7029H202.818V52.6171H199.083V55.4514H203.137V56.3657H198.08V48Z"></path>
    <path d="M205.643 48H206.645V55.4057H210.517V56.32H205.643V48Z"></path>
    <path
      d="M215.802 56.4115C213.661 56.4115 212.157 54.7658 212.157 52.1601C212.157 49.5544 213.706 47.9087 215.802 47.9087C217.943 47.9087 219.446 49.5544 219.446 52.1601C219.446 54.7658 217.897 56.4115 215.802 56.4115ZM215.802 48.823C214.298 48.823 213.114 50.0115 213.114 52.1601C213.114 54.3087 214.298 55.4973 215.802 55.4973C217.305 55.4973 218.49 54.3087 218.49 52.1601C218.49 50.0115 217.305 48.823 215.802 48.823Z"></path>
    <path
      d="M221.861 48H224.64C226.599 48 227.464 49.1429 227.464 50.6514C227.464 52.16 226.599 53.3029 224.685 53.3029H222.863V56.32H221.861V48ZM224.64 52.3886C225.961 52.3886 226.462 51.6114 226.462 50.6514C226.462 49.6457 225.961 48.9143 224.594 48.9143H222.818V52.3886H224.64Z"></path>
    <path
      d="M231.063 48L233.888 54.9029H233.979L236.804 48H237.988V56.32H237.031V50.0114H236.94L234.344 56.32H233.432L230.836 50.0114H230.745V56.32H229.788V48H231.063Z"></path>
    <path
      d="M240.995 48H246.006V48.9143H241.997V51.7029H245.733V52.6171H241.997V55.4514H246.052V56.3657H240.995V48Z"></path>
    <path
      d="M255.072 56.32H254.115L249.605 49.7829H249.514V56.32H248.511V48H249.468L253.978 54.5371H254.069V48H255.072V56.32Z"></path>
    <path d="M257.395 48H263.591V48.9143H260.994V56.32H259.992V48.9143H257.395V48Z"></path>
  </g>
  <defs>
    <clipPath id="clip0_837_5571">
      <rect width="264.229" height="64" fill="white"></rect>
    </clipPath>
  </defs>
</svg>
